<svg xmlns="http://www.w3.org/2000/svg" xmlns:svg="http://www.w3.org/2000/svg" id="svg2" width="600" height="600" version="1.0"><title id="title3003">Markovkate 01</title><metadata id="metadata7"/><g id="g3005" transform="translate(-2,4)"><path id="path1308" d="m 255.67117,146.16386 c 0,33.24047 -29.84183,60.18719 -66.65358,60.18719 -36.81175,0 -66.65357,-26.94672 -66.65357,-60.18719 0,-33.24046 29.84182,-60.187179 66.65357,-60.187179 36.81175,0 66.65358,26.946719 66.65358,60.187179 z" transform="matrix(0.90707302,0,0,1.0045271,213.17166,246.29877)" style="fill:none;stroke:#0580f8;stroke-width:12;stroke-linecap:butt;stroke-linejoin:miter;stroke-miterlimit:4;stroke-opacity:1;stroke-dasharray:none;stroke-dashoffset:0"/><text id="text12679" x="360.015" y="419.368" style="font-size:72px;font-style:normal;font-variant:normal;font-weight:400;font-stretch:normal;text-align:start;line-height:100%;writing-mode:lr-tb;text-anchor:start;fill:#026dfa;fill-opacity:1;stroke:#0274fa;stroke-width:1px;stroke-linecap:butt;stroke-linejoin:miter;stroke-opacity:1;font-family:Galilee Unicode Gk" xml:space="preserve"><tspan id="tspan12681" x="360.015" y="419.368">A</tspan></text></g><g id="g3010"><path id="path1306" d="m 255.67117,146.16386 c 0,33.24047 -29.84183,60.18719 -66.65358,60.18719 -36.81175,0 -66.65357,-26.94672 -66.65357,-60.18719 0,-33.24046 29.84182,-60.187179 66.65357,-60.187179 36.81175,0 66.65358,26.946719 66.65358,60.187179 z" transform="matrix(0.90707302,0,0,1.0045271,-20.192963,27.415252)" style="fill:none;stroke:#585454;stroke-width:12;stroke-linecap:butt;stroke-linejoin:miter;stroke-miterlimit:4;stroke-opacity:1;stroke-dasharray:none;stroke-dashoffset:0"/><text id="text7437" x="127.283" y="200.485" style="font-size:72px;font-style:normal;font-variant:normal;font-weight:400;font-stretch:normal;text-align:start;line-height:100%;writing-mode:lr-tb;text-anchor:start;fill:#5e5858;fill-opacity:1;stroke:#585454;stroke-width:1px;stroke-linecap:butt;stroke-linejoin:miter;stroke-opacity:1;font-family:Galilee Unicode Gk" xml:space="preserve"><tspan id="tspan7439" x="127.283" y="200.485">E</tspan></text></g><g id="g3027"><path id="path1314" d="M 167.42126,110.88468 C 285.60096,-93.116013 454.42912,185.45045 229.32491,161.53313" style="fill:none;fill-opacity:.75;fill-rule:evenodd;stroke:#fe5205;stroke-width:10;stroke-linecap:butt;stroke-linejoin:miter;stroke-opacity:1;stroke-miterlimit:4;stroke-dasharray:none"/><path id="path1318" d="m -558.53979,-34.026159 -52.36829,-17.599799 41.42602,-36.55237 z" transform="matrix(0.989283,0.146243,-0.14622,0.989129,825.9054,302.1034)" style="fill:#fb5a07;fill-opacity:1;stroke:#fe5205;stroke-width:10.00043964;stroke-linecap:butt;stroke-linejoin:miter;stroke-miterlimit:4;stroke-dasharray:none;stroke-dashoffset:0;stroke-opacity:1"/></g><g id="g3023"><path id="path1316" d="M 310.08895,387.14938 C 56.846717,328.05953 130.08361,617.05706 328.4567,453.85651" style="fill:none;stroke:#fe5205;stroke-width:10;stroke-linecap:butt;stroke-linejoin:miter;stroke-miterlimit:4;stroke-opacity:1;stroke-dasharray:none"/><path id="path1320" d="M -558.53979,-34.026159 L -610.90808,-51.625958 L -569.48206,-88.178328 L -558.53979,-34.026159 z" transform="matrix(0.74057,0.631429,-0.674196,0.775357,691.0375,880.995)" style="fill:#fb5a07;fill-opacity:1;stroke:#fe5205;stroke-width:10.00043488;stroke-linecap:butt;stroke-linejoin:miter;stroke-miterlimit:4;stroke-dasharray:none;stroke-dashoffset:0;stroke-opacity:1"/></g><g id="g3019"><path id="path1312" d="M 317.44591,372.4804 C 169.01782,350.67342 180.69081,242.72392 181.85579,241.81443" style="fill:none;fill-opacity:.75;fill-rule:evenodd;stroke:#fe5205;stroke-width:10;stroke-linecap:butt;stroke-linejoin:miter;stroke-opacity:1;stroke-miterlimit:4;stroke-dasharray:none"/><path id="path1322" d="M -558.53979,-34.026159 L -610.90808,-51.625958 L -569.48206,-88.178328 L -558.53979,-34.026159 z" transform="matrix(0.937052,-0.349287,0.349233,0.936906,745.3351,125.6772)" style="fill:#fb5a07;fill-opacity:1;stroke:#fe5205;stroke-width:10.00043869;stroke-linecap:butt;stroke-linejoin:miter;stroke-miterlimit:4;stroke-dasharray:none;stroke-dashoffset:0;stroke-opacity:1"/></g><g id="g3015"><path id="path1310" d="m 218.0697,198.11255 c 148.42809,21.80698 126.16067,132.72633 124.99569,133.63582" style="fill:none;stroke:#fe5205;stroke-width:10;stroke-linecap:butt;stroke-linejoin:miter;stroke-miterlimit:4;stroke-opacity:1;stroke-dasharray:none"/><path id="path1324" d="M -558.53979,-34.026159 L -610.90808,-51.625958 L -569.48206,-88.178328 L -558.53979,-34.026159 z" transform="matrix(0.746444,0.6655,-0.665396,0.746328,738.3938,729.9089)" style="fill:#fb5a07;fill-opacity:1;stroke:#fe5205;stroke-width:10.00043488;stroke-linecap:butt;stroke-linejoin:miter;stroke-miterlimit:4;stroke-dasharray:none;stroke-dashoffset:0;stroke-opacity:1"/></g><text xml:space="preserve" style="font-size:48px;font-style:normal;font-variant:normal;font-weight:400;font-stretch:normal;text-align:start;line-height:100%;writing-mode:lr-tb;text-anchor:start;fill:#000;fill-opacity:1;stroke:none;font-family:Galilee Unicode Gk" id="text15302" x="356.387" y="96.816"><tspan id="tspan15304" x="356.387" y="96.816">0.3</tspan></text><text xml:space="preserve" style="font-size:48px;font-style:normal;font-variant:normal;font-weight:400;font-stretch:normal;text-align:start;line-height:100%;writing-mode:lr-tb;text-anchor:start;fill:#000;fill-opacity:1;stroke:none;font-family:Galilee Unicode Gk" id="text15306" x="338.318" y="243.133"><tspan id="tspan15308" x="338.318" y="243.133">0.7</tspan></text><text xml:space="preserve" style="font-size:48px;font-style:normal;font-variant:normal;font-weight:400;font-stretch:normal;text-align:start;line-height:100%;writing-mode:lr-tb;text-anchor:start;fill:#000;fill-opacity:1;stroke:none;font-family:Galilee Unicode Gk" id="text15314" x="66.011" y="495.082"><tspan id="tspan15316" x="66.011" y="495.082">0.6</tspan></text><text xml:space="preserve" style="font-size:48px;font-style:normal;font-variant:normal;font-weight:400;font-stretch:normal;text-align:start;line-height:100%;writing-mode:lr-tb;text-anchor:start;fill:#000;fill-opacity:1;stroke:none;stroke-width:1px;stroke-linecap:butt;stroke-linejoin:miter;stroke-opacity:1;font-family:Galilee Unicode Gk" id="text15318" x="119.587" y="358.499"><tspan id="tspan15320" x="119.587" y="358.499">0.4</tspan></text></svg>