<svg xmlns="http://www.w3.org/2000/svg" xmlns:svg="http://www.w3.org/2000/svg" id="svg8" width="38" height="38" version="1.1" viewBox="0 0 10.054 10.054"><metadata id="metadata5"/><g id="layer1"><g id="g841" transform="translate(-0.03915569,0.17182978)"><path id="path941" d="m 30.685547,1.4550781 c -1.343255,-9.744e-4 -2.687404,0.5096695 -3.708985,1.53125 L 19.210938,10.751953 H 7.6113281 c -2.8894526,2e-6 -5.2421875,2.360546 -5.2421875,5.25 0,2.889454 2.3527349,5.246101 5.2421875,5.246094 v -0.0059 h 8.7675779 v 8.761718 h -0.0059 c 0,2.889454 2.35664,5.242188 5.246094,5.242188 2.889453,0 5.246093,-2.352734 5.246093,-5.242188 V 17.992188 c 2.270943,-2.402013 5.052828,-5.115328 7.527344,-7.589844 l 0.0039,0.0039 C 36.439635,8.3630975 36.435596,5.0333878 34.392578,2.9902344 33.371004,1.9686587 32.028802,1.4560526 30.685547,1.4550781 Z m 0.0293,1.2695313 c 1.006522,-0.013697 2.013685,0.365249 2.796875,1.1484375 1.566372,1.5663753 1.505829,4.0215206 -0.06055,5.5878906 l -6.632353,6.6415445 c -0.576834,0.642706 -1.291749,1.387137 -1.283697,1.889706 v 12.011718 c 0,2.215193 -1.700824,3.994141 -3.916015,3.994141 -2.21519,0 -3.910157,-1.778948 -3.910157,-3.994141 v -8.761718 c 0,-0.686849 -0.585531,-1.330079 -1.330078,-1.330079 H 7.6113281 c -2.2151947,0 -3.9941406,-1.694965 -3.9941406,-3.910156 0,-2.215192 1.7789459,-3.916015 3.9941406,-3.916015 H 19.210938 c 0.317764,-0.0246 0.987309,-0.71303 1.611444,-1.294233 l 7.095587,-6.8639706 c 0.796074,-0.7700885 1.790352,-1.1894282 2.796875,-1.203125 z" transform="scale(0.26458333)" style="color:#000;font-style:normal;font-variant:normal;font-weight:400;font-stretch:normal;font-size:medium;line-height:normal;font-family:sans-serif;font-variant-ligatures:normal;font-variant-position:normal;font-variant-caps:normal;font-variant-numeric:normal;font-variant-alternates:normal;font-variant-east-asian:normal;font-feature-settings:normal;font-variation-settings:normal;text-indent:0;text-align:start;text-decoration:none;text-decoration-line:none;text-decoration-style:solid;text-decoration-color:#000;letter-spacing:normal;word-spacing:normal;text-transform:none;writing-mode:lr-tb;direction:ltr;text-orientation:mixed;dominant-baseline:auto;baseline-shift:baseline;text-anchor:start;white-space:normal;shape-padding:0;shape-margin:0;inline-size:0;clip-rule:nonzero;display:inline;overflow:visible;visibility:visible;isolation:auto;mix-blend-mode:normal;color-interpolation:sRGB;color-interpolation-filters:linearRGB;solid-color:#000;solid-opacity:1;vector-effect:none;fill:#000;fill-opacity:.983261;fill-rule:nonzero;stroke:none;stroke-width:1.33127;stroke-linecap:butt;stroke-linejoin:miter;stroke-miterlimit:4;stroke-dasharray:none;stroke-dashoffset:0;stroke-opacity:1;color-rendering:auto;image-rendering:auto;shape-rendering:auto;text-rendering:auto;enable-background:accumulate;stop-color:#000"/><path id="path969" style="fill:#000;fill-opacity:.983261;stroke:none;stroke-width:1.38015;stroke-linejoin:miter;stroke-miterlimit:4;stroke-dasharray:none;stroke-opacity:.983261" d="M 2.2978616,4.2333333 A 0.36516471,0.36516471 0 0 1 1.9326968,4.5984981 0.36516471,0.36516471 0 0 1 1.5675322,4.2333333 0.36516471,0.36516471 0 0 1 1.9326968,3.8681687 0.36516471,0.36516471 0 0 1 2.2978616,4.2333333"/><path id="circle971" style="fill:#000;fill-opacity:.983261;stroke:none;stroke-width:1.38015;stroke-linejoin:miter;stroke-miterlimit:4;stroke-dasharray:none;stroke-opacity:.983261" d="M 6.0854166,4.2333333 A 0.36516471,0.36516471 0 0 1 5.7202519,4.5984981 0.36516471,0.36516471 0 0 1 5.3550873,4.2333333 0.36516471,0.36516471 0 0 1 5.7202519,3.8681687 0.36516471,0.36516471 0 0 1 6.0854166,4.2333333"/><circle id="circle1018" cx="8.07" cy="-5.72" r=".365" transform="rotate(90)" style="fill:#000;fill-opacity:.983261;stroke:none;stroke-width:1.38015;stroke-linejoin:miter;stroke-miterlimit:4;stroke-dasharray:none;stroke-opacity:.983261"/><path d="M 8.5493486,1.7694013 A 0.36516471,0.36516471 0 0 1 8.1841839,2.1345661 0.36516471,0.36516471 0 0 1 7.8190193,1.7694013 0.36516471,0.36516471 0 0 1 8.1841839,1.4042367 0.36516471,0.36516471 0 0 1 8.5493486,1.7694013" style="fill:#000;fill-opacity:.983261;stroke:none;stroke-width:1.38015;stroke-linejoin:miter;stroke-miterlimit:4;stroke-dasharray:none;stroke-opacity:.983261" id="path1761"/></g></g></svg>