<svg xmlns="http://www.w3.org/2000/svg" xmlns:svg="http://www.w3.org/2000/svg" id="svg8" width="38" height="38" version="1.1" viewBox="0 0 10.054 10.054"><metadata id="metadata5"/><g id="layer1"><g style="stroke-width:1.20461" id="g889" transform="matrix(0.83014287,0,0,0.83014287,-1.6702839,1.0457903)"><g id="g875" transform="matrix(1.2758665,0,0,1.3412904,3.4253486,-1.6161182)" style="stroke-width:.920838"><circle style="fill:none;fill-opacity:.983261;stroke:#000;stroke-width:.520772" id="path869" cx="3.969" cy="7.952" r=".599"/><circle id="circle871" cx="5.745" cy="7.952" r=".599" style="fill:none;fill-opacity:.983261;stroke:#000;stroke-width:.520772"/></g><path id="path941-6" style="color:#000;font-style:normal;font-variant:normal;font-weight:400;font-stretch:normal;font-size:medium;line-height:normal;font-family:sans-serif;font-variant-ligatures:normal;font-variant-position:normal;font-variant-caps:normal;font-variant-numeric:normal;font-variant-alternates:normal;font-variant-east-asian:normal;font-feature-settings:normal;font-variation-settings:normal;text-indent:0;text-align:start;text-decoration:none;text-decoration-line:none;text-decoration-style:solid;text-decoration-color:#000;letter-spacing:normal;word-spacing:normal;text-transform:none;writing-mode:lr-tb;direction:ltr;text-orientation:mixed;dominant-baseline:auto;baseline-shift:baseline;text-anchor:start;white-space:normal;shape-padding:0;shape-margin:0;inline-size:0;clip-rule:nonzero;display:inline;overflow:visible;visibility:visible;isolation:auto;mix-blend-mode:normal;color-interpolation:sRGB;color-interpolation-filters:linearRGB;solid-color:#000;solid-opacity:1;vector-effect:none;fill:#000;fill-opacity:.983261;fill-rule:nonzero;stroke:none;stroke-width:2.27643;stroke-linecap:butt;stroke-linejoin:miter;stroke-miterlimit:4;stroke-dasharray:none;stroke-dashoffset:0;stroke-opacity:1;color-rendering:auto;image-rendering:auto;shape-rendering:auto;text-rendering:auto;enable-background:accumulate;stop-color:#000" d="m 36.378906,1.2617188 c -3.392675,0 -6.369382,1.4965316 -8.40039,3.8496093 h -5.97461 v -3.5 H 12.111328 V 23.507812 h 9.892578 V 20 h 3.191406 v 10.074219 h 1.070313 21.273437 V 12.644531 c 0,-6.2655301 -4.867957,-11.3828123 -11.160156,-11.3828122 z m 0,2.1484374 c 5.143291,0 9.011719,4.0643956 9.011719,9.2343748 v 15.28125 H 27.341797 V 20 H 35 v 0.0059 c 4.101639,-4.1e-5 7.439453,-3.345624 7.439453,-7.447265 0,-4.1016414 -3.337814,-7.4492179 -7.439453,-7.449219 h -3.925781 c 1.471946,-1.069572 3.290155,-1.6992188 5.304687,-1.6992188 z m -22.376953,0.091797 h 6.111328 V 21.617188 H 14.001953 Z M 35,7.0019532 c 3.144516,0 5.667969,2.4140828 5.667969,5.5585938 0,3.144511 -2.523453,5.550781 -5.667969,5.550781 H 27.341797 22.003906 V 7.0019532 h 4.650391" transform="scale(0.26458333)"/></g></g></svg>