<svg xmlns="http://www.w3.org/2000/svg" xmlns:svg="http://www.w3.org/2000/svg" id="svg8" width="38" height="38" version="1.1" viewBox="0 0 10.054 10.054"><defs id="defs2"><marker id="marker6318" orient="auto" refX="0" refY="0" style="overflow:visible"><path id="path6316" style="fill-rule:evenodd;stroke-width:.625;stroke-linejoin:round;stroke:#000;stroke-opacity:1;fill:#000;fill-opacity:1" d="M 8.7185878,4.0337352 L -2.2072895,0.016013256 L 8.7185884,-4.0017078 C 6.9730900,-1.6296469 6.9831476,1.6157441 8.7185878,4.0337352 z" transform="scale(0.3) rotate(180) translate(-2.3,0)"/></marker><marker style="overflow:visible" id="marker5756" orient="auto" refX="0" refY="0"><path id="path5754" d="M 8.7185878,4.0337352 L -2.2072895,0.016013256 L 8.7185884,-4.0017078 C 6.9730900,-1.6296469 6.9831476,1.6157441 8.7185878,4.0337352 z" transform="scale(0.3) rotate(180) translate(-2.3,0)" style="fill-rule:evenodd;stroke-width:.625;stroke-linejoin:round;stroke:#000;stroke-opacity:1;fill:#000;fill-opacity:1"/></marker><marker style="overflow:visible" id="marker5624" orient="auto" refX="0" refY="0"><path id="path5622" d="M 8.7185878,4.0337352 L -2.2072895,0.016013256 L 8.7185884,-4.0017078 C 6.9730900,-1.6296469 6.9831476,1.6157441 8.7185878,4.0337352 z" transform="scale(0.3) rotate(180) translate(-2.3,0)" style="fill-rule:evenodd;stroke-width:.625;stroke-linejoin:round;stroke:#000;stroke-opacity:1;fill:#000;fill-opacity:1"/></marker><marker id="Arrow1Lend" orient="auto" refX="0" refY="0" style="overflow:visible"><path id="path4593" d="M 0.0,0.0 L 5.0,-5.0 L -12.5,0.0 L 5.0,5.0 L 0.0,0.0 z" style="fill-rule:evenodd;stroke:#000;stroke-width:1pt;stroke-opacity:1;fill:#000;fill-opacity:1" transform="scale(0.8) rotate(180) translate(12.5,0)"/></marker><marker style="overflow:visible" id="marker5438" orient="auto" refX="0" refY="0"><path transform="scale(0.4) rotate(180) translate(10,0)" style="fill-rule:evenodd;stroke:#000;stroke-width:1pt;stroke-opacity:1;fill:#000;fill-opacity:1" id="path5436" d="M 0.0,0.0 L 5.0,-5.0 L -12.5,0.0 L 5.0,5.0 L 0.0,0.0 z"/></marker><marker id="Arrow1Mend" orient="auto" refX="0" refY="0" style="overflow:visible"><path id="path4599" d="M 0.0,0.0 L 5.0,-5.0 L -12.5,0.0 L 5.0,5.0 L 0.0,0.0 z" style="fill-rule:evenodd;stroke:#000;stroke-width:1pt;stroke-opacity:1;fill:#000;fill-opacity:1" transform="scale(0.4) rotate(180) translate(10,0)"/></marker><marker id="marker6318-9" orient="auto" refX="0" refY="0" style="overflow:visible"><path id="path6316-4" style="fill:#000;fill-opacity:1;fill-rule:evenodd;stroke:#000;stroke-width:.625;stroke-linejoin:round;stroke-opacity:1" d="M 8.7185878,4.0337352 -2.2072895,0.01601326 8.7185884,-4.0017078 c -1.7454984,2.3720609 -1.7354408,5.6174519 -6e-7,8.035443 z" transform="matrix(-0.3,0,0,-0.3,0.69,0)"/></marker></defs><metadata id="metadata5"/><g id="layer1" transform="matrix(-1,0,0,1,10.054167,-288.77142)"><path style="fill:none;stroke:#000;stroke-width:.665;stroke-linecap:butt;stroke-linejoin:miter;stroke-miterlimit:4;stroke-dasharray:none;stroke-opacity:1;marker-end:url(#marker6318)" id="path6314" d="m 8.5505614,291.96971 h -6.08542"/></g><g id="layer1-5" transform="translate(-0.04079379,-285.33108)"><path style="fill:none;stroke:#000;stroke-width:.665;stroke-linecap:butt;stroke-linejoin:miter;stroke-miterlimit:4;stroke-dasharray:none;stroke-opacity:1;marker-end:url(#marker6318-9)" id="path6314-9" d="m 8.5505614,291.96971 h -6.08542"/></g></svg>