<svg xmlns="http://www.w3.org/2000/svg" xmlns:svg="http://www.w3.org/2000/svg" id="svg8" width="38" height="38" version="1.1" viewBox="0 0 10.054 10.054"><metadata id="metadata5"/><g id="layer1"><g id="g976" transform="translate(-0.53840785)"><path id="path941" style="color:#000;font-style:normal;font-variant:normal;font-weight:400;font-stretch:normal;font-size:medium;line-height:normal;font-family:sans-serif;font-variant-ligatures:normal;font-variant-position:normal;font-variant-caps:normal;font-variant-numeric:normal;font-variant-alternates:normal;font-variant-east-asian:normal;font-feature-settings:normal;font-variation-settings:normal;text-indent:0;text-align:start;text-decoration:none;text-decoration-line:none;text-decoration-style:solid;text-decoration-color:#000;letter-spacing:normal;word-spacing:normal;text-transform:none;writing-mode:lr-tb;direction:ltr;text-orientation:mixed;dominant-baseline:auto;baseline-shift:baseline;text-anchor:start;white-space:normal;shape-padding:0;shape-margin:0;inline-size:0;clip-rule:nonzero;display:inline;overflow:visible;visibility:visible;opacity:1;isolation:auto;mix-blend-mode:normal;color-interpolation:sRGB;color-interpolation-filters:linearRGB;solid-color:#000;solid-opacity:1;vector-effect:none;fill:#000;fill-opacity:.983261;fill-rule:nonzero;stroke:none;stroke-width:.499999;stroke-linecap:butt;stroke-linejoin:miter;stroke-miterlimit:4;stroke-dasharray:none;stroke-dashoffset:0;stroke-opacity:1;color-rendering:auto;image-rendering:auto;shape-rendering:auto;text-rendering:auto;enable-background:accumulate;stop-color:#000;stop-opacity:1" d="m 2.9343857,3.0564061 v 0.5002278 h 5.2622109 c 0.831986,0 1.4996501,0.6387262 1.4996501,1.4707114 0,0.8319851 -0.6676641,1.4686441 -1.4996501,1.4686441 H 2.9343857 v 0.4997111 h 5.2622109 v 0.00206 c 1.0852258,-2e-7 1.9683554,-0.8851966 1.9683554,-1.9704224 0,-1.0852258 -0.8831296,-1.9709389 -1.9683554,-1.9709392 z m 0,0 c -1.0852253,5e-7 -1.96835534,0.8857133 -1.96835534,1.9709392 0,1.0852258 0.88313004,1.9704253 1.96835534,1.9704224 v -0.00206 -0.4997111 c -0.8319863,0 -1.4996501,-0.6366587 -1.4996501,-1.4686441 0,-0.8319852 0.6676638,-1.4707108 1.4996501,-1.4707113 z"/><circle style="fill:#000;fill-opacity:.983261;stroke:none;stroke-width:1.95915;stroke-linejoin:miter;stroke-miterlimit:4;stroke-dasharray:none;stroke-opacity:.983261" id="path969" cx="2.514" cy="5.027" r=".518"/><circle id="circle971" cx="8.617" cy="5.027" r=".518" style="fill:#000;fill-opacity:.983261;stroke:none;stroke-width:1.95915;stroke-linejoin:miter;stroke-miterlimit:4;stroke-dasharray:none;stroke-opacity:.983261"/></g></g></svg>